<svg width="273" height="301" viewBox="0 0 273 301" fill="none" xmlns="http://www.w3.org/2000/svg">
<path d="M136.5 133.569C147.455 133.569 156.335 123.777 156.335 111.699C156.335 99.6209 147.455 89.8296 136.5 89.8296C125.546 89.8296 116.665 99.6209 116.665 111.699C116.665 123.777 125.546 133.569 136.5 133.569Z" fill="#61DAFB"/>
<path d="M136.5 192.123C152.07 208.819 167.426 218.695 179.796 218.695C183.849 218.695 187.688 217.755 190.887 215.638C201.977 208.584 206.03 190.947 202.191 165.785C201.551 161.317 200.698 156.849 199.631 152.146C203.897 150.735 207.736 149.324 211.575 147.913C233.117 138.742 245.06 126.044 245.06 112.169C245.06 98.0601 233.117 85.3617 211.575 76.4257C207.736 74.7796 203.897 73.3687 199.631 72.1929C200.698 67.4898 201.551 63.0218 202.191 58.5539C205.817 32.9218 201.764 15.05 190.674 7.99526C187.474 5.87886 183.635 4.93823 179.583 4.93823C167.426 4.93823 151.856 14.8148 136.287 31.5109C120.931 14.8148 105.574 4.93823 93.204 4.93823C89.1517 4.93823 85.3126 5.87886 82.1134 7.99526C71.0228 15.05 66.9704 32.6867 70.8095 57.8484C71.4493 62.3164 72.3024 66.7843 73.3689 71.4874C69.1032 72.8984 65.2642 74.3093 61.4251 75.7203C39.8837 84.8914 27.9399 97.5898 27.9399 111.464C27.9399 125.573 39.8837 138.272 61.4251 147.208C65.2642 148.854 69.1032 150.265 73.3689 151.441C72.3024 156.144 71.4493 160.612 70.8095 165.08C67.1837 190.241 71.236 208.113 82.1134 214.933C85.3126 217.049 89.1517 217.99 93.204 217.99C105.574 218.46 120.931 208.584 136.5 192.123ZM124.556 160.377C128.395 160.612 132.448 160.612 136.5 160.612C140.552 160.612 144.605 160.612 148.444 160.377C144.605 166.02 140.552 171.194 136.5 176.132C132.448 171.194 128.395 166.02 124.556 160.377ZM98.1095 136.155C100.242 140.153 102.162 143.916 104.508 147.678C97.8962 146.737 91.711 145.562 85.7392 144.151C87.6587 137.802 89.7915 131.217 92.3509 124.633C94.0571 128.395 95.9767 132.393 98.1095 136.155ZM85.7392 79.4828C91.711 78.0718 97.8962 76.896 104.508 75.9554C102.375 79.7179 100.242 83.4804 98.1095 87.4781C95.9767 91.4757 94.0571 95.2382 92.3509 99.2359C89.5782 92.4164 87.4454 85.832 85.7392 79.4828ZM97.4696 111.699C100.242 105.35 103.228 99.0007 106.641 92.6515C109.84 86.5375 113.466 80.4234 117.092 74.3093C123.49 73.839 129.888 73.6039 136.5 73.6039C143.325 73.6039 149.724 73.839 155.909 74.3093C159.748 80.4234 163.16 86.5375 166.359 92.6515C169.772 99.0007 172.758 105.35 175.531 111.699C172.758 118.048 169.772 124.398 166.359 130.747C163.16 136.861 159.534 142.975 155.909 149.089C149.51 149.559 143.112 149.794 136.5 149.794C129.675 149.794 123.277 149.559 117.092 149.089C113.252 142.975 109.84 136.861 106.641 130.747C103.228 124.398 100.242 118.048 97.4696 111.699ZM180.863 99.0007L175.104 87.2429C172.971 83.2453 171.052 79.4828 168.706 75.7203C175.317 76.6609 181.502 77.8367 187.474 79.2476C185.555 85.832 183.422 92.4164 180.863 99.0007ZM180.863 124.398C183.422 130.982 185.555 137.566 187.474 143.916C181.502 145.327 175.317 146.502 168.706 147.443C170.838 143.68 172.971 139.918 175.104 135.92C177.024 132.393 178.943 128.395 180.863 124.398ZM185.768 205.997C184.062 207.173 181.929 207.643 179.583 207.643C169.132 207.643 156.122 198.237 143.325 184.127C149.51 176.837 155.482 168.607 161.454 159.436C171.478 158.495 181.076 156.849 190.034 154.498C191.1 158.73 191.74 162.963 192.38 167.196C195.366 187.184 193.02 201.529 185.768 205.997ZM196.859 82.0695C220.746 89.5945 235.036 101.117 235.036 111.699C235.036 120.87 225.225 130.041 207.949 137.331C204.537 138.742 200.698 140.153 196.859 141.329C194.086 131.687 190.674 121.811 186.408 111.699C190.674 101.587 194.299 91.7109 196.859 82.0695ZM179.796 15.7554C182.142 15.7554 184.062 16.2257 185.981 17.4015C193.02 21.8695 195.579 35.9789 192.593 56.2023C191.953 60.1999 191.1 64.4328 190.247 68.9007C181.289 66.7843 171.692 65.1382 161.667 63.9625C155.909 54.7914 149.724 46.5609 143.538 39.271C156.335 25.3968 169.345 15.7554 179.796 15.7554ZM148.444 63.0218C144.605 62.7867 140.552 62.7867 136.5 62.7867C132.448 62.7867 128.395 62.7867 124.556 63.0218C128.395 57.3781 132.448 52.2046 136.5 47.2664C140.552 52.2046 144.605 57.6132 148.444 63.0218ZM87.2321 17.4015C88.9384 16.2257 91.0712 15.7554 93.4173 15.7554C103.868 15.7554 116.878 25.1617 129.675 39.271C123.49 46.5609 117.518 54.7914 111.546 63.9625C101.522 64.9031 91.9243 66.5492 82.9665 68.9007C81.9001 64.6679 81.2603 60.4351 80.6204 56.2023C77.6345 36.214 79.9806 22.1046 87.2321 17.4015ZM76.1415 141.329C52.254 133.804 37.9642 122.281 37.9642 111.699C37.9642 102.528 47.7751 93.357 65.0509 86.0671C68.4634 84.6562 72.3024 83.2453 76.1415 82.0695C78.9142 91.7109 82.3267 101.587 86.5923 111.699C82.3267 121.811 78.7009 131.923 76.1415 141.329ZM80.6204 167.196C81.2603 163.198 82.1134 158.966 82.9665 154.498C91.9243 156.614 101.522 158.26 111.546 159.436C117.305 168.607 123.49 176.837 129.675 184.127C116.878 198.002 103.868 207.643 93.4173 207.643C91.0712 207.643 89.1517 207.173 87.2321 205.997C79.9806 201.529 77.6345 187.184 80.6204 167.196ZM71.6626 264.08C76.3548 257.731 76.5681 250.677 74.0087 243.622C71.4493 236.567 66.1173 233.275 59.5056 233.04C51.6142 232.805 43.5095 233.04 35.6181 233.04H34.1251V293.945H40.5235V270.9H50.5478C51.8274 270.9 52.8938 271.37 53.5337 272.546L66.3306 294.416C66.5438 294.886 67.1837 295.591 67.6103 295.591H75.9282C70.8095 286.891 65.904 278.66 60.7853 270.194C65.2642 269.489 69.1032 267.843 71.6626 264.08ZM40.5235 263.61V240.33H42.8696C47.7751 240.33 52.8938 240.094 57.7993 240.565C63.5579 240.8 67.6103 245.738 67.6103 252.087C67.6103 258.437 62.9181 263.375 57.1595 263.61C52.0407 263.845 46.922 263.61 40.5235 263.61ZM123.063 266.667C119.651 250.206 106.001 245.973 95.5501 251.147C87.4454 255.144 83.8196 262.905 83.6063 272.546C83.3931 279.836 85.3126 286.42 90.4314 291.359C96.1899 297.002 103.228 297.708 110.48 296.297C114.532 295.356 118.158 293.24 120.931 289.948C119.864 288.302 118.798 286.655 117.731 285.244C111.759 290.888 105.148 292.769 97.8962 289.007C93.204 286.42 90.8579 280.071 90.4314 275.368H123.49V272.311C123.703 270.194 123.49 268.313 123.063 266.667ZM90.8579 270.43C90.2181 263.375 96.6165 255.85 103.655 255.85C111.759 255.615 116.878 261.023 117.092 270.43H90.8579ZM156.335 249.971C153.136 249.266 149.724 249.03 146.524 249.266C141.406 249.736 136.927 252.323 133.301 256.555C134.367 258.202 135.22 259.848 136.5 261.729C136.927 261.259 137.353 260.788 137.78 260.553C141.192 257.026 145.245 255.144 150.15 255.615C153.989 255.85 157.615 257.261 158.681 261.494C159.534 264.786 159.321 268.313 159.534 271.841C158.895 271.841 158.681 271.605 158.468 271.37C153.349 266.667 147.591 265.727 141.406 267.373C135.647 269.019 132.021 273.957 131.595 280.306C131.168 287.596 134.154 293.005 139.913 295.591C143.538 297.237 147.591 297.237 151.43 296.297C154.416 295.591 155.695 293.71 159.961 291.123V294.18H165.933C165.933 284.774 166.146 273.252 165.933 262.434C165.933 255.615 162.307 251.382 156.335 249.971ZM159.321 279.601C159.108 280.306 159.321 281.012 159.321 281.717C159.321 286.655 158.255 288.302 153.989 290.183C151.003 291.359 147.804 291.829 144.605 290.653C140.979 289.477 138.42 285.95 138.42 281.952C138.206 277.955 140.552 273.957 144.178 272.781C149.084 270.9 153.563 272.076 157.615 275.368C158.895 276.544 159.748 277.719 159.321 279.601ZM192.593 256.32C198.138 254.439 203.257 255.615 207.096 260.788L207.736 261.259C209.229 259.848 210.509 258.437 212.215 256.791C211.575 256.085 211.362 255.615 210.935 254.909C204.75 247.619 192.593 246.679 185.128 252.558C174.677 261.023 174.891 277.484 180.009 286.185C184.915 294.416 191.953 297.237 200.271 296.062C205.177 295.356 209.229 292.769 212.428 288.302C210.935 286.891 209.442 285.48 207.949 283.834C207.523 284.304 207.309 284.539 207.096 285.009C201.338 292.064 191.74 291.359 186.621 283.834C183.635 279.366 182.995 274.192 183.849 269.019C184.275 263.14 187.048 258.437 192.593 256.32ZM236.956 288.302C236.529 288.537 236.316 288.772 236.316 288.772C234.609 290.183 232.903 290.418 230.984 289.712C229.064 288.772 228.851 286.891 228.638 285.009V258.202C228.638 257.731 228.638 258.672 228.851 256.32H236.956V249.266H228.424V237.508H222.026V250.206H216.481C216.054 250.206 215.414 250.677 215.414 251.147C215.201 252.793 215.414 253.969 215.414 256.32H222.239V286.42C222.239 290.183 223.092 293.475 226.078 295.356C229.277 297.473 235.463 297.002 238.235 294.416C238.662 294.18 238.875 293.24 238.875 293.005C238.235 291.594 237.595 289.948 236.956 288.302Z" fill="#61DAFB"/>
</svg>
