<svg width="182" height="267" viewBox="0 0 182 267" fill="none" xmlns="http://www.w3.org/2000/svg">
<g clip-path="url(#clip0_137_5)">
<path d="M45.5 267C70.616 267 91 247.064 91 222.5V178H45.5C20.384 178 0 197.936 0 222.5C0 247.064 20.384 267 45.5 267Z" fill="#0ACF83"/>
<path d="M0 133.5C0 108.936 20.384 89 45.5 89H91V178H45.5C20.384 178 0 158.064 0 133.5Z" fill="#A259FF"/>
<path d="M0 44.5C0 19.936 20.384 0 45.5 0H91V89H45.5C20.384 89 0 69.064 0 44.5Z" fill="#F24E1E"/>
<path d="M91 0H136.5C161.616 0 182 19.936 182 44.5C182 69.064 161.616 89 136.5 89H91V0Z" fill="#FF7262"/>
<path d="M182 133.5C182 158.064 161.616 178 136.5 178C111.384 178 91 158.064 91 133.5C91 108.936 111.384 89 136.5 89C161.616 89 182 108.936 182 133.5Z" fill="#1ABCFE"/>
</g>
<defs>
<clipPath id="clip0_137_5">
<rect width="182" height="267" fill="white"/>
</clipPath>
</defs>
</svg>
