<svg width="211" height="130" viewBox="0 0 211 130" fill="none" xmlns="http://www.w3.org/2000/svg">
<g clip-path="url(#clip0_143_2)">
<path d="M62.7684 85.7839L69.1808 104.59C70.6215 108.86 71.2224 111.841 70.9817 113.539C74.4888 105.05 76.9393 95.7978 78.3333 85.7839H86.0439C82.7281 102.087 78.356 113.933 72.9277 121.323C68.6986 127.019 64.0657 129.866 59.0207 129.866C57.6755 129.866 56.0172 129.499 54.0494 128.769V124.839C55.0108 124.967 56.1388 125.035 57.4361 125.035C59.7892 125.034 61.6871 124.446 63.1298 123.269C64.8578 121.835 65.7228 120.223 65.7228 118.437C65.7228 117.218 65.0482 114.715 63.7051 110.929L54.7706 85.7839H62.7684ZM13.6915 74.2251L25.4366 106.616H25.5092L37.3264 74.2251H46.9813C49.0954 90.2885 50.3441 104.986 50.7274 118.308H42.5874C42.3006 105.855 41.5082 94.1438 40.2103 83.1746H40.1395L27.744 118.308H21.5451L9.22466 83.1746H9.15213C8.23862 93.7092 7.66221 105.42 7.42291 118.308H0C0.479695 102.634 1.68017 87.9407 3.60142 74.2251H13.6915Z" fill="#00758F"/>
<path d="M145.268 73.5712C157.902 73.5712 164.219 80.8668 164.219 95.451C164.219 103.376 162.319 109.363 158.523 113.407C157.839 114.146 157.083 114.784 156.287 115.376L165.227 119.371L165.219 119.371L162.044 124.326L150.401 118.185C148.471 118.702 146.348 118.96 144.033 118.96C137.83 118.96 133.196 117.326 130.133 114.062C126.77 110.451 125.089 104.766 125.089 97.0177C125.089 89.1373 126.986 83.1737 130.783 79.1243C134.241 75.4202 139.07 73.5712 145.268 73.5712ZM106.579 73.6349C111.094 73.6349 115.2 74.727 118.898 76.9035L117.02 80.6869C113.855 79.4711 110.735 78.8606 107.659 78.8606C105.162 78.8606 103.238 79.4037 101.897 80.4966C100.549 81.5798 99.7148 82.9736 99.7148 84.6729C99.7148 87.2841 101.773 89.5485 105.573 91.4616C106.818 92.0767 108.058 92.6989 109.295 93.3282L109.578 93.4723L109.72 93.5446L110.004 93.6888L110.146 93.761L110.43 93.9056C113.306 95.3713 116.013 96.7704 116.013 96.7704C119.813 99.2084 121.707 101.808 121.707 106.089C121.707 109.827 120.191 112.896 117.169 115.298C114.146 117.688 110.083 118.887 104.996 118.887C100.239 118.887 95.6275 117.507 91.161 114.771L93.2504 110.984C97.0942 112.726 100.572 113.596 103.696 113.596C106.625 113.596 108.918 113.004 110.577 111.837C112.232 110.661 113.224 109.021 113.224 106.941C113.224 104.324 111.21 102.086 107.514 100.209C106.358 99.6316 105.204 99.0484 104.055 98.4596L103.772 98.3148C103.251 98.0492 102.728 97.7802 102.215 97.5169L101.936 97.3738C99.4411 96.091 97.2837 94.9701 97.2837 94.9701C93.5896 92.5277 91.7371 89.9072 91.7371 85.5893C91.7371 82.0182 93.1185 79.1317 95.8772 76.9359C98.6427 74.7352 102.21 73.6349 106.579 73.6349ZM179.067 74.2249V112.885H194.413V118.308H171.284V74.2253L179.067 74.2249ZM202.94 112.902V113.818H201.253V118.303H199.963V113.818H198.211V112.902H202.94ZM206.056 112.902L207.676 116.584L209.164 112.902H210.993V118.303H209.777V114.193L208.083 118.303H207.206L205.51 114.193H205.445V118.303H204.295V112.902H206.056ZM144.473 78.9924C137.028 78.9924 133.303 84.5463 133.303 95.6466C133.303 102.005 134.29 106.616 136.261 109.49C138.085 112.149 140.943 113.476 144.835 113.476C152.28 113.476 156.004 107.879 156.004 96.6903C156.004 90.4209 155.017 85.8497 153.05 82.9744C151.223 80.3207 148.366 78.9924 144.474 78.9924" fill="#F29111"/>
<path d="M124.959 2.73152C127.429 -2.75381 136.065 1.40023 139.416 3.31633C140.237 3.79573 141.179 4.80854 142.121 5.18289C143.59 5.23504 145.058 5.33897 146.53 5.39447C149.29 5.98077 151.875 6.4598 154.051 7.57951C164.159 12.9602 170.739 18.4433 176.795 27.5001C178.089 29.4184 178.736 31.4943 179.793 33.5702C181.26 36.6645 182.908 39.9126 184.611 42.8386C185.373 44.2257 185.963 45.7682 187.022 46.9397C187.435 47.4754 188.609 47.6333 189.311 47.9533C191.251 48.861 193.602 49.5501 195.427 50.6155C198.835 52.536 202.129 54.8246 205.125 57.1676C206.241 58.072 207.002 59.3523 208.065 60.3089V60.7916C207.121 61.0535 206.18 61.3217 205.239 61.5366C203.182 62.0141 201.36 61.9061 199.365 62.384C198.131 62.7073 196.6 63.1338 195.307 63.2422L195.427 63.351C196.188 65.3159 200.304 66.9139 202.186 68.0891C204.473 69.5806 206.591 71.3894 208.297 73.4668C208.885 73.9968 209.474 74.4792 210.06 75.0078C210.47 75.5434 210.585 76.2363 211 76.7138V76.8755C210.541 76.7291 210.211 76.4497 209.898 76.1577L209.711 75.9815C209.525 75.8064 209.336 75.6343 209.122 75.4924C207.824 74.6915 206.536 73.7335 205.239 72.9889C203.008 71.7097 200.422 70.9674 198.131 69.6834C196.837 68.938 195.602 68.0891 194.368 67.2361C193.249 66.4885 192.017 65.0529 191.314 63.9876C190.9 63.3991 190.843 62.7073 190.37 62.2816C190.454 61.5705 191.175 61.3593 191.902 61.1857L192.07 61.1458C192.321 61.087 192.566 61.0281 192.781 60.9503C195.836 59.7777 199.479 59.3523 204.182 59.4588C204.005 58.3913 201.066 57.0611 200.128 56.4219C198.244 55.1949 196.25 53.9146 194.252 52.7979C193.194 52.2131 191.369 51.7862 190.196 51.3083C188.609 50.722 185.082 50.1361 184.203 49.0193C182.709 47.2589 181.636 45.1592 180.594 43.0382L180.31 42.4594L180.026 41.8809C178.794 39.3267 177.265 36.6638 176.03 34.0485C175.385 32.7727 175.089 31.653 174.382 30.4293C170.093 22.9206 163.745 16.6341 156.049 12.2129C153.52 10.7744 150.7 9.44309 147.587 8.53831C145.823 8.05667 143.705 8.32301 141.826 7.95349H140.589C139.533 7.68455 138.651 6.67286 137.828 6.13945C136.008 5.02272 134.186 4.27289 132.01 3.47613C131.247 3.15653 129.07 2.41229 128.31 2.99822C127.84 3.10513 127.601 3.26567 127.485 3.69255C127.017 4.32951 127.429 5.28905 127.72 5.87647C128.603 7.57877 129.836 8.59046 130.955 10.029C131.951 11.3048 133.188 12.7434 133.894 14.1305C135.417 17.1123 136.126 20.416 137.537 23.3974C138.061 24.5186 138.889 25.7944 139.651 26.8057C140.296 27.6084 141.471 28.1888 141.826 29.205C142.534 30.2703 140.766 33.7855 140.357 34.9019C138.826 39.2701 139.122 45.3421 140.885 49.1285L140.979 49.3281L141.073 49.5304C141.717 50.9172 142.406 52.4105 144.118 52.7983C144.235 52.6925 144.118 52.748 144.351 52.6925C144.765 49.7617 144.882 46.9393 146 44.6463C146.645 43.2125 147.935 42.199 148.819 41.0286C149.408 41.3475 149.408 42.3089 149.759 42.9451C150.524 44.5952 151.346 46.4044 152.288 48.0594C154.224 51.4677 156.401 54.7721 158.869 57.7536C159.695 58.8185 160.867 59.9907 161.925 60.9499C162.396 61.3213 162.923 61.5358 163.277 62.0138H163.393V62.1747C161.63 61.5872 160.512 59.9386 159.106 58.9761C156.459 57.1669 153.288 54.4499 151.463 51.8428C150.7 50.3462 149.875 48.9117 149.053 47.4225V47.3148C148.701 47.7402 148.819 48.1626 148.643 48.8063C147.88 51.4677 148.467 54.5039 145.823 55.4612C142.825 56.5824 140.589 53.652 139.651 52.3204C136.652 47.9004 135.831 40.4438 137.945 34.4247C138.415 33.0923 138.479 31.4943 139.299 30.4305C139.122 29.4687 138.302 29.2057 137.828 28.6164C137.005 27.6092 136.301 26.4358 135.657 25.3172C134.419 23.1322 133.539 20.5214 132.6 18.178C132.187 17.2211 132.069 16.2605 131.657 15.3546C130.955 13.9719 129.66 12.5847 128.662 11.3614C127.31 9.60326 123.372 6.1957 124.959 2.73152ZM144.234 13.1669C144.391 13.3092 144.581 13.4336 144.777 13.5562L145.013 13.7029C145.329 13.9003 145.634 14.1082 145.821 14.3913C146.118 14.766 146.173 15.1359 146.528 15.5114C146.528 16.7916 146.118 17.6428 145.289 18.1732C145.289 18.1732 145.233 18.2291 145.175 18.2812C144.705 17.4278 144.293 16.5789 143.82 15.7263C143.237 14.9821 142.413 14.3917 141.939 13.5413H141.825V13.4344C142.534 13.276 143.237 13.1669 144.234 13.1669Z" fill="#00758F"/>
</g>
<defs>
<clipPath id="clip0_143_2">
<rect width="211" height="130" fill="white"/>
</clipPath>
</defs>
</svg>
