<svg width="247" height="202" viewBox="0 0 247 202" fill="none" xmlns="http://www.w3.org/2000/svg">
<g clip-path="url(#clip0_144_10)">
<path d="M220.588 87.1978C220.489 87.1977 220.391 87.2218 220.309 87.2672L215.781 89.4292C215.696 89.4724 215.626 89.5329 215.578 89.6048C215.53 89.6767 215.506 89.7576 215.507 89.8395V94.1636C215.507 94.3467 215.614 94.4855 215.781 94.5771L220.309 96.7359C220.391 96.7814 220.489 96.8057 220.588 96.8057C220.688 96.8057 220.785 96.7814 220.868 96.7359L225.387 94.5771C225.473 94.5329 225.544 94.4717 225.593 94.3991C225.642 94.3265 225.667 94.2449 225.667 94.162V89.8427C225.668 89.7603 225.643 89.6791 225.594 89.6071C225.545 89.5352 225.474 89.4749 225.387 89.4324L220.866 87.2688C220.784 87.2237 220.687 87.198 220.588 87.1978ZM121.995 113.054C121.171 113.054 120.351 113.218 119.652 113.54L97.3662 124.156C96.6521 124.499 96.0602 124.989 95.6493 125.577C95.2383 126.165 95.0226 126.831 95.0236 127.508V148.691C95.0236 150.07 95.9151 151.358 97.3662 152.049L103.232 154.805C106.081 155.954 107.086 155.95 108.369 155.95C112.557 155.95 114.959 153.837 114.959 150.206V129.304C114.957 129.158 114.885 129.019 114.76 128.916C114.635 128.813 114.465 128.753 114.288 128.75H111.443C111.265 128.752 111.094 128.811 110.968 128.915C110.842 129.018 110.77 129.158 110.768 129.304V150.211C110.768 151.819 108.705 153.43 105.411 152.052L99.3229 149.157C99.0991 149.065 98.9852 148.831 98.9852 148.648V127.46C98.9852 127.277 99.0991 127.05 99.3229 126.957L121.601 116.388C121.769 116.297 122.051 116.297 122.275 116.388L144.559 126.957C144.781 127.05 144.891 127.232 144.891 127.462V148.647C144.891 148.876 144.781 149.063 144.559 149.155L122.275 159.771C122.107 159.863 121.825 159.863 121.601 159.771L115.907 156.964C115.739 156.872 115.515 156.826 115.347 156.918C113.784 157.653 113.51 157.749 112.001 158.163C111.665 158.254 111.108 158.436 112.223 158.941L119.652 162.574C120.378 162.894 121.157 163.077 121.995 163.077C122.832 163.077 123.668 162.896 124.337 162.667L146.623 152.051C147.339 151.707 147.931 151.216 148.342 150.627C148.753 150.038 148.968 149.371 148.966 148.693V127.508C148.966 126.129 148.075 124.845 146.623 124.156L124.337 113.54C123.62 113.218 122.813 113.051 121.995 113.054ZM156.787 122.728C155.643 122.731 154.548 123.106 153.743 123.77C152.937 124.434 152.486 125.332 152.49 126.267C152.487 127.202 152.937 128.1 153.743 128.764C154.549 129.427 155.644 129.802 156.787 129.806C159.135 129.806 161.086 128.197 161.086 126.267C161.08 125.334 160.626 124.441 159.822 123.779C159.018 123.117 157.928 122.738 156.787 122.728ZM156.729 123.326C157.205 123.321 157.677 123.394 158.118 123.539C158.559 123.685 158.961 123.901 159.299 124.175C159.637 124.449 159.905 124.774 160.088 125.134C160.27 125.493 160.364 125.878 160.363 126.267C160.363 127.877 158.742 129.256 156.731 129.256C154.778 129.256 153.157 127.921 153.157 126.267C153.157 124.614 154.832 123.326 156.729 123.326ZM155.168 124.29V128.333H156.121V126.73H156.959C157.295 126.73 157.405 126.821 157.461 127.05C157.461 127.097 157.626 128.107 157.626 128.291H158.63C158.518 128.107 158.462 127.555 158.406 127.233C158.352 126.728 158.298 126.361 157.626 126.315C157.962 126.222 158.52 126.084 158.52 125.349C158.52 124.292 157.401 124.292 156.845 124.292L155.168 124.29ZM156.007 124.934H156.787C157.069 124.934 157.513 124.934 157.513 125.485C157.513 125.668 157.405 126.039 156.787 126.039H156.006L156.007 124.934ZM128.085 128.106C121.717 128.106 117.919 130.312 117.919 134.035C117.919 138.034 121.717 139.132 127.805 139.639C135.119 140.237 135.678 141.111 135.678 142.306C135.678 144.373 133.664 145.248 128.973 145.248C123.052 145.248 121.769 144.051 121.321 141.616C121.321 141.34 121.047 141.159 120.712 141.159H117.807C117.63 141.16 117.46 141.219 117.335 141.322C117.211 141.425 117.14 141.564 117.14 141.709C117.14 144.834 119.149 148.511 128.924 148.511C135.958 148.511 140.035 146.21 140.035 142.167C140.035 138.214 136.794 137.158 129.928 136.423C123 135.687 122.277 135.274 122.277 133.942C122.277 132.839 122.89 131.369 128.027 131.369C132.606 131.369 134.335 132.198 135.007 134.725C135.04 134.839 135.119 134.94 135.23 135.015C135.341 135.089 135.479 135.131 135.622 135.135H138.58C138.75 135.135 138.918 135.045 139.032 134.953C139.133 134.83 139.19 134.687 139.196 134.538C138.75 130.127 135.234 128.106 128.085 128.106Z" fill="#5FA04E"/>
<path d="M166.092 38.923C165.854 38.9201 165.62 38.9686 165.413 39.0634C165.197 39.1669 165.018 39.3137 164.891 39.4899C164.764 39.6662 164.695 39.8659 164.689 40.0703V69.9426C164.689 70.2172 164.516 70.4949 164.182 70.678C164.027 70.7457 163.855 70.7811 163.68 70.7811C163.505 70.7811 163.332 70.7457 163.178 70.678L157.262 67.8768C156.827 67.674 156.336 67.5672 155.836 67.5672C155.336 67.5672 154.844 67.674 154.41 67.8768L130.736 79.1368C130.298 79.3388 129.933 79.6318 129.678 79.9862C129.423 80.3407 129.287 80.7439 129.283 81.1552V103.628C129.283 104.455 129.843 105.237 130.736 105.651L154.414 116.911C154.848 117.113 155.339 117.22 155.839 117.22C156.338 117.22 156.83 117.113 157.264 116.911L180.939 105.651C181.833 105.237 182.392 104.455 182.392 103.628V47.609C182.392 46.7363 181.833 45.9519 180.939 45.5401L166.814 39.0634C166.59 38.9718 166.342 38.9238 166.092 38.923ZM26.4116 66.9599C25.9659 66.9599 25.5201 67.0925 25.1303 67.2756L1.45304 78.4945C1.00805 78.7016 0.638743 79.0021 0.383295 79.365C0.127846 79.7279 -0.00448106 80.1399 -1.25351e-05 80.5586L0.0578781 110.704C0.0578781 111.119 0.333823 111.533 0.781511 111.717C0.989052 111.828 1.23185 111.888 1.48006 111.888C1.72827 111.888 1.97106 111.828 2.1786 111.717L16.2537 105.1C17.1472 104.687 17.701 103.904 17.701 103.077V88.9685C17.701 88.1415 18.2606 87.3588 19.156 86.9453L25.1303 84.0968C25.5761 83.8664 26.0816 83.7749 26.5834 83.7749C27.0851 83.7749 27.5887 83.8664 27.9805 84.0968L33.9548 86.9453C34.8482 87.3588 35.4078 88.1415 35.4078 88.9685V103.077C35.4078 103.904 35.9636 104.687 36.8551 105.1L50.8183 111.717C51.0353 111.83 51.2874 111.891 51.5448 111.891C51.8023 111.891 52.0543 111.83 52.2714 111.717C52.4936 111.618 52.6787 111.472 52.8066 111.293C52.9344 111.115 53.0003 110.911 52.9969 110.704V80.5586C52.9969 79.7317 52.4373 78.949 51.5419 78.5339L27.9226 67.2756C27.5247 67.1029 27.0895 66.9952 26.6413 66.9584L26.4116 66.9599ZM220.667 67.2913C220.179 67.2913 219.695 67.3955 219.247 67.6038L195.566 78.8574C194.673 79.2709 194.119 80.0536 194.119 80.8822V103.355C194.119 104.182 194.673 104.964 195.566 105.378L219.077 116.404C219.501 116.607 219.983 116.714 220.474 116.714C220.964 116.714 221.446 116.607 221.87 116.404L236.111 109.882C236.333 109.783 236.517 109.636 236.645 109.458C236.772 109.279 236.838 109.075 236.834 108.869C236.837 108.662 236.771 108.459 236.644 108.282C236.516 108.104 236.332 107.957 236.111 107.859L212.324 96.5971C212.107 96.4932 211.927 96.3457 211.8 96.1685C211.674 95.9914 211.605 95.7907 211.6 95.5856V88.5534C211.597 88.3472 211.663 88.1443 211.79 87.9664C211.918 87.7884 212.102 87.6422 212.324 87.5434L219.753 84.0495C219.97 83.9362 220.222 83.8761 220.479 83.8761C220.737 83.8761 220.989 83.9362 221.206 84.0495L228.627 87.5419C228.845 87.6452 229.026 87.7925 229.154 87.9696C229.282 88.1468 229.352 88.3478 229.357 88.5534V94.069C229.357 94.484 229.635 94.8975 230.08 95.0806C230.298 95.1941 230.55 95.2545 230.808 95.2545C231.066 95.2545 231.318 95.1941 231.535 95.0806L245.605 88.3262C246.036 88.1203 246.393 87.8243 246.639 87.4685C246.884 87.1127 247.009 86.7099 247.002 86.3014V80.8332C247.002 80.0063 246.442 79.2283 245.605 78.8132L222.094 67.6022C221.66 67.3993 221.169 67.2916 220.669 67.2898L220.667 67.2913ZM155.836 84.0731C155.961 84.0731 156.089 84.0968 156.202 84.1441L164.296 88.0042C164.519 88.0958 164.633 88.323 164.633 88.5077V96.2279C164.633 96.4583 164.519 96.6445 164.296 96.736L156.2 100.596C156.087 100.642 155.962 100.665 155.836 100.665C155.709 100.665 155.585 100.642 155.471 100.596L147.376 96.736C147.152 96.6445 147.038 96.4125 147.038 96.2279V88.5077C147.038 88.2773 147.154 88.0958 147.376 88.0027L155.471 84.1441C155.584 84.0961 155.708 84.0717 155.836 84.0731Z" fill="#333333"/>
<path d="M92.5903 67.6905C92.157 67.4867 91.666 67.3794 91.1662 67.3794C90.6663 67.3794 90.1753 67.4867 89.742 67.6905L66.2307 78.8589C65.7999 79.0645 65.4435 79.36 65.198 79.7152C64.9525 80.0704 64.8268 80.4725 64.8336 80.8805V103.26C64.8336 104.088 65.3932 104.87 66.2307 105.283L89.742 116.45C90.1753 116.654 90.6663 116.761 91.1662 116.761C91.666 116.761 92.157 116.654 92.5903 116.45L116.1 105.283C116.993 104.87 117.497 104.088 117.497 103.26V80.8805C117.497 80.0535 116.937 79.2708 116.1 78.8589L92.5903 67.6905Z" fill="url(#paint0_linear_144_10)"/>
<path d="M116.156 78.8589L92.5343 67.6905C92.3025 67.5944 92.0594 67.5178 91.8087 67.4617L65.3373 104.731C65.5611 104.961 65.839 105.144 66.1188 105.283L89.742 116.45C90.4116 116.772 91.1932 116.863 91.9187 116.679L116.771 79.2724C116.608 79.0974 116.397 78.9558 116.156 78.8589Z" fill="url(#paint1_linear_144_10)"/>
<path d="M116.156 105.282C116.827 104.96 117.329 104.409 117.553 103.811L91.6949 67.4144C91.0272 67.3229 90.2997 67.3686 89.6861 67.6906L66.2307 78.8116L91.5289 116.77C91.8628 116.724 92.2545 116.633 92.5902 116.494L116.156 105.282Z" fill="url(#paint2_linear_144_10)"/>
</g>
<defs>
<linearGradient id="paint0_linear_144_10" x1="100.74" y1="76.0067" x2="85.3844" y2="114.073" gradientUnits="userSpaceOnUse">
<stop stop-color="#3F873F"/>
<stop offset="0.33" stop-color="#3F8B3D"/>
<stop offset="0.637" stop-color="#3E9638"/>
<stop offset="0.934" stop-color="#3DA92E"/>
<stop offset="1" stop-color="#3DAE2B"/>
</linearGradient>
<linearGradient id="paint1_linear_144_10" x1="87.5934" y1="94.6836" x2="138.645" y2="48.8444" gradientUnits="userSpaceOnUse">
<stop offset="0.138" stop-color="#3F873F"/>
<stop offset="0.402" stop-color="#52A044"/>
<stop offset="0.713" stop-color="#64B749"/>
<stop offset="0.908" stop-color="#6ABF4B"/>
</linearGradient>
<linearGradient id="paint2_linear_144_10" x1="63.9736" y1="92.0626" x2="118.376" y2="92.0626" gradientUnits="userSpaceOnUse">
<stop offset="0.092" stop-color="#6ABF4B"/>
<stop offset="0.287" stop-color="#64B749"/>
<stop offset="0.598" stop-color="#52A044"/>
<stop offset="0.862" stop-color="#3F873F"/>
</linearGradient>
<clipPath id="clip0_144_10">
<rect width="247" height="202" fill="white"/>
</clipPath>
</defs>
</svg>
