<svg width="334" height="297" viewBox="0 0 334 297" fill="none" xmlns="http://www.w3.org/2000/svg">
<path d="M20.875 18.5625H313.125V278.438H20.875V18.5625Z" fill="#F5DE19"/>
<path d="M217.194 221.59C219.688 226.085 223.557 229.863 228.358 232.49C233.158 235.116 238.695 236.486 244.331 236.44C255.708 236.44 262.983 231.382 262.983 224.374C262.983 216.021 255.51 213.033 242.985 208.16L236.117 205.543C216.286 198.034 203.135 188.632 203.135 168.752C203.135 150.44 218.791 136.49 243.35 136.49C251.3 135.981 259.243 137.564 266.189 141.041C273.134 144.519 278.775 149.737 282.407 156.046L260.937 168.251C259.538 165.123 257.103 162.447 253.954 160.577C250.806 158.708 247.094 157.733 243.309 157.781C241.657 157.634 239.989 157.795 238.411 158.253C236.833 158.71 235.379 159.456 234.143 160.441C232.907 161.425 231.915 162.629 231.231 163.973C230.546 165.318 230.184 166.775 230.168 168.251C230.168 175.573 235.272 178.543 247.056 183.101L253.923 185.718C277.262 194.619 290.455 203.686 290.455 224.077C290.455 246.065 271.031 258.112 244.947 258.112C234.785 258.682 224.655 256.627 215.775 252.196C206.896 247.765 199.646 241.146 194.899 233.136L217.194 221.59ZM120.177 223.706C124.488 230.509 128.413 236.264 137.848 236.264C146.866 236.264 152.565 233.126 152.565 220.922V137.882H180.026V221.246C180.026 246.529 163.326 258.037 139.017 258.037C130.424 258.455 121.891 256.551 114.538 252.575C107.185 248.599 101.357 242.738 97.8202 235.762L120.177 223.706Z" fill="white"/>
</svg>
