<svg width="90" height="90" viewBox="0 0 90 90" fill="none" xmlns="http://www.w3.org/2000/svg">
<g clip-path="url(#clip0_2_15)">
<path d="M54.3225 11.7863C55.2796 12.0555 56.0907 12.6938 56.5773 13.5608C57.0639 14.4279 57.1863 15.4527 56.9175 16.41L40.305 75.615C40.172 76.0892 39.947 76.5326 39.6426 76.9199C39.3383 77.3072 38.9607 77.6307 38.5313 77.872C38.102 78.1133 37.6293 78.2677 37.1403 78.3263C36.6513 78.385 36.1555 78.3467 35.6813 78.2138C35.207 78.0808 34.7636 77.8557 34.3764 77.5514C33.9891 77.2471 33.6656 76.8695 33.4243 76.4401C33.183 76.0107 33.0286 75.5381 32.9699 75.049C32.9113 74.56 32.9495 74.0642 33.0825 73.59L49.695 14.385C49.8279 13.9103 50.053 13.4665 50.3576 13.0789C50.6622 12.6913 51.0402 12.3676 51.47 12.1262C51.8998 11.8849 52.3729 11.7306 52.8624 11.6723C53.3518 11.6139 53.848 11.6527 54.3225 11.7863ZM27.0262 26.4375C27.7293 27.1407 28.1242 28.0944 28.1242 29.0888C28.1242 30.0831 27.7293 31.0368 27.0262 31.74L13.77 45L27.0262 58.2563C27.3747 58.6044 27.6511 59.0178 27.8397 59.4728C28.0284 59.9278 28.1256 60.4155 28.1258 60.9081C28.1259 61.4006 28.0291 61.8884 27.8408 62.3435C27.6524 62.7986 27.3763 63.2122 27.0281 63.5606C26.68 63.909 26.2666 64.1855 25.8116 64.3741C25.3566 64.5628 24.8689 64.66 24.3763 64.6601C23.8838 64.6603 23.396 64.5635 22.9409 64.3751C22.4857 64.1868 22.0722 63.9107 21.7238 63.5625L5.8125 47.6513C5.10948 46.948 4.71455 45.9944 4.71455 45C4.71455 44.0056 5.10948 43.052 5.8125 42.3488L21.7238 26.4375C22.427 25.7345 23.3806 25.3396 24.375 25.3396C25.3694 25.3396 26.323 25.7345 27.0262 26.4375ZM62.9737 31.74C62.6156 31.3941 62.3299 30.9803 62.1334 30.5228C61.9368 30.0653 61.8334 29.5732 61.8291 29.0753C61.8247 28.5773 61.9196 28.0835 62.1082 27.6227C62.2967 27.1618 62.5752 26.7431 62.9273 26.391C63.2794 26.0389 63.6981 25.7605 64.1589 25.5719C64.6198 25.3834 65.1136 25.2885 65.6115 25.2928C66.1094 25.2971 66.6015 25.4006 67.059 25.5971C67.5165 25.7937 67.9303 26.0793 68.2763 26.4375L84.1875 42.3488C84.8905 43.052 85.2855 44.0056 85.2855 45C85.2855 45.9944 84.8905 46.948 84.1875 47.6513L68.2763 63.5625C67.5726 64.2657 66.6184 64.6605 65.6237 64.6601C64.6289 64.6598 63.675 64.2643 62.9719 63.5606C62.2687 62.857 61.8739 61.9028 61.8742 60.9081C61.8746 59.9133 62.2701 58.9594 62.9737 58.2563L76.23 45L62.9737 31.74Z" fill="#FF0000"/>
</g>
<defs>
<clipPath id="clip0_2_15">
<rect width="90" height="90" fill="white"/>
</clipPath>
</defs>
</svg>
