<svg width="153" height="72" viewBox="0 0 153 72" fill="none" xmlns="http://www.w3.org/2000/svg">
<path d="M61.508 57.58V50.91C64.64 50.91 66.902 50.33 68.294 49.17C69.7247 47.9713 70.44 45.864 70.44 42.848V17.56H77.4V42.848C77.4 45.864 76.936 48.474 76.008 50.678C75.08 52.882 73.456 54.5833 71.136 55.782C68.8547 56.9807 65.6453 57.58 61.508 57.58ZM108.197 57L98.3366 39.774C97.6793 40.5087 97.0026 41.2433 96.3066 41.978C95.6493 42.7127 94.9533 43.4667 94.2186 44.24V57H87.2586V17.56H94.2186V36.294C97.1573 32.93 99.6706 29.74 101.759 26.724C103.847 23.6693 105.645 20.6147 107.153 17.56H114.751C113.088 20.8853 111.309 24.0367 109.415 27.014C107.559 29.9527 105.587 32.6787 103.499 35.192L116.607 57H108.197Z" fill="#FF0000"/>
<path d="M50.3225 4.78622C51.2796 5.05544 52.0907 5.69375 52.5773 6.56082C53.0639 7.42788 53.1863 8.45271 52.9175 9.40997L36.305 68.615C36.172 69.0892 35.947 69.5326 35.6426 69.9199C35.3383 70.3071 34.9607 70.6306 34.5313 70.872C34.102 71.1133 33.6293 71.2677 33.1403 71.3263C32.6513 71.3849 32.1555 71.3467 31.6813 71.2137C31.207 71.0808 30.7636 70.8557 30.3764 70.5514C29.9891 70.2471 29.6656 69.8694 29.4243 69.4401C29.183 69.0107 29.0286 68.538 28.9699 68.049C28.9113 67.56 28.9495 67.0642 29.0825 66.59L45.695 7.38497C45.8279 6.91029 46.053 6.46646 46.3576 6.07888C46.6622 5.6913 47.0402 5.36756 47.47 5.12619C47.8998 4.88483 48.3729 4.73056 48.8624 4.67223C49.3519 4.61389 49.848 4.65263 50.3225 4.78622ZM23.0263 19.4375C23.7293 20.1407 24.1242 21.0944 24.1242 22.0887C24.1242 23.0831 23.7293 24.0367 23.0263 24.74L9.77 38L23.0263 51.2562C23.3747 51.6044 23.6511 52.0178 23.8397 52.4728C24.0284 52.9278 24.1256 53.4155 24.1258 53.908C24.1259 54.4006 24.0291 54.8884 23.8408 55.3435C23.6524 55.7986 23.3763 56.2122 23.0281 56.5606C22.68 56.909 22.2666 57.1854 21.8116 57.3741C21.3566 57.5628 20.8689 57.6599 20.3763 57.6601C19.8838 57.6603 19.396 57.5634 18.9409 57.3751C18.4857 57.1868 18.0722 56.9106 17.7238 56.5625L1.8125 40.6512C1.10949 39.948 0.714554 38.9943 0.714554 38C0.714554 37.0056 1.10949 36.052 1.8125 35.3487L17.7238 19.4375C18.427 18.7345 19.3806 18.3395 20.375 18.3395C21.3694 18.3395 22.323 18.7345 23.0263 19.4375ZM130.188 23.6423C129.83 23.2964 129.544 22.8826 129.348 22.4251C129.151 21.9676 129.048 21.4755 129.044 20.9776C129.039 20.4797 129.134 19.9859 129.323 19.525C129.511 19.0642 129.79 18.6455 130.142 18.2934C130.494 17.9413 130.913 17.6628 131.373 17.4743C131.834 17.2857 132.328 17.1908 132.826 17.1952C133.324 17.1995 133.816 17.3029 134.274 17.4995C134.731 17.696 135.145 17.9817 135.491 18.3398L151.402 34.2511C152.105 34.9543 152.5 35.908 152.5 36.9023C152.5 37.8967 152.105 38.8504 151.402 39.5536L135.491 55.4648C134.787 56.168 133.833 56.5628 132.838 56.5625C131.843 56.5621 130.89 56.1666 130.186 55.463C129.483 54.7593 129.088 53.8051 129.089 52.8104C129.089 51.8156 129.485 50.8617 130.188 50.1586L143.445 36.9023L130.188 23.6423Z" fill="#FF0000"/>
</svg>
